<svg width="106.000000" height="106.000000" viewBox="0 0 106 106" fill="none" xmlns="http://www.w3.org/2000/svg" xmlns:xlink="http://www.w3.org/1999/xlink">
	<desc>
			Created with Pixso.
	</desc>
	<defs/>
	<circle id="Mask" cx="53.000000" cy="53.000000" r="53.000000" fill="#36536B" fill-opacity="1.000000"/>
	<circle id="Mask" cx="53.000000" cy="53.000000" r="53.000000" stroke="#979797" stroke-opacity="0" stroke-width="0.000000"/>
	<mask id="mask0_5242" mask-type="alpha" maskUnits="userSpaceOnUse" x="0.000000" y="0.000000" width="106.000000" height="106.000000">
		<circle id="Mask" cx="53.000000" cy="53.000000" r="53.000000" fill="#36536B" fill-opacity="1.000000"/>
		<circle id="Mask" cx="53.000000" cy="53.000000" r="53.000000" stroke="#979797" stroke-opacity="0" stroke-width="0.000000"/>
	</mask>
	<path id="Combined Shape" d="M59.9937 31.3795L56.8907 40.4234L39.2178 40.4234L36.1144 31.3795L41.2573 28L44.6558 30.2334L48.0542 28L51.4526 30.2334L54.8511 28L59.9937 31.3795ZM39.801 43.3364L56.3074 43.3364L56.3074 46.2494L39.801 46.2494L39.801 43.3364ZM62.3518 60.2311L54.9481 60.2311L54.9481 68.9701L52.0352 68.9701L52.0352 77.5513C51.3635 77.6548 50.6805 77.7087 49.991 77.7087L46.1174 77.7087C41.5925 77.7087 37.4493 75.4245 35.0339 71.5986C33.6832 69.4599 33 67.0405 33 64.609C33 62.6914 33.4249 60.7662 34.2826 58.9651L38.9508 49.1624L57.1577 49.1624L61.8258 58.9651C62.0242 59.3816 62.199 59.804 62.3518 60.2311ZM50.9384 65.8015C51.238 65.5637 51.4796 65.258 51.6631 64.8852C51.8463 64.5128 51.9381 64.0615 51.9381 63.5317C51.9381 63.0823 51.871 62.7007 51.7367 62.386C51.6028 62.0719 51.4102 61.8046 51.1599 61.5842C50.9095 61.3643 50.6077 61.1735 50.2543 61.0116C49.9008 60.85 49.5052 60.7017 49.0671 60.5671C48.9686 60.5402 48.8745 60.511 48.7854 60.4795C48.6959 60.448 48.611 60.4237 48.5302 60.4052L48.5302 59.1927C48.7809 59.2378 49.0289 59.3027 49.275 59.388C49.5208 59.4733 49.7422 59.5655 49.9391 59.6641C50.1715 59.7722 50.3862 59.889 50.583 60.0145L51.7102 57.8452C51.5221 57.7557 51.3165 57.659 51.0928 57.5555C50.8694 57.4523 50.63 57.3533 50.3752 57.2589C50.12 57.1649 49.8541 57.0818 49.5769 57.0101C49.2993 56.9381 49.0133 56.8838 48.7183 56.8482L48.7183 55.4738L47.645 55.4738L47.645 56.8345C47.2244 56.8797 46.8289 56.9828 46.4575 57.1444C46.0863 57.3063 45.7621 57.5217 45.4849 57.7914C45.2075 58.0606 44.9888 58.3822 44.8275 58.7547C44.6667 59.1275 44.5859 59.5564 44.5859 60.0415C44.5859 60.3919 44.6331 60.7017 44.7271 60.9714C44.8212 61.2406 44.9664 61.4811 45.1632 61.6919C45.3596 61.9032 45.6104 62.0917 45.9146 62.2578C46.2183 62.4243 46.5804 62.579 47.0011 62.7227C47.2783 62.8217 47.5555 62.907 47.8328 62.9787L47.8328 64.1642C47.5107 64.1195 47.1956 64.0414 46.8868 63.9287C46.5781 63.8165 46.3077 63.702 46.0753 63.5851C45.7981 63.4505 45.5387 63.3068 45.2971 63.1539L44.1703 65.4579C44.6531 65.7457 45.1985 65.9835 45.8068 66.1724C46.4147 66.3609 47.0276 66.4822 47.645 66.5361L47.645 68.1934L48.7179 68.1934L48.7179 66.563C49.1294 66.5361 49.5276 66.4617 49.9121 66.3408C50.2968 66.2194 50.6388 66.0396 50.9384 65.8015ZM47.4304 59.9402C47.3408 59.8549 47.2961 59.7449 47.2961 59.6099C47.2961 59.3497 47.4751 59.1969 47.8328 59.1522L47.8328 60.1761C47.6537 60.1044 47.5199 60.0259 47.4304 59.9402ZM57.8612 63.1441L72.9109 63.1441L72.9109 68.9701L57.8612 68.9701L57.8612 63.1441ZM48.5302 63.2078C48.7092 63.2799 48.8522 63.3629 48.9595 63.457C49.0671 63.5514 49.1207 63.6614 49.1207 63.7873C49.1207 63.9041 49.0759 63.9982 48.9865 64.0702C48.897 64.1419 48.7452 64.187 48.5302 64.2049L48.5302 63.2078ZM54.9482 71.8827L69.9983 71.8827L69.9983 77.7087L54.9482 77.7087L54.9482 71.8827Z" clip-rule="evenodd" fill="#EDF3F8" fill-opacity="1.000000" fill-rule="evenodd"/>
</svg>
