<svg width="106.000000" height="106.000000" viewBox="0 0 106 106" fill="none" xmlns="http://www.w3.org/2000/svg" xmlns:xlink="http://www.w3.org/1999/xlink">
	<desc>
			Created with Pixso.
	</desc>
	<defs/>
	<circle id="Mask" cx="53.000000" cy="53.000000" r="53.000000" fill="#36536B" fill-opacity="1.000000"/>
	<circle id="Mask" cx="53.000000" cy="53.000000" r="53.000000" stroke="#979797" stroke-opacity="0" stroke-width="0.000000"/>
	<mask id="mask0_5263" mask-type="alpha" maskUnits="userSpaceOnUse" x="0.000000" y="0.000000" width="106.000000" height="106.000000">
		<circle id="Mask" cx="53.000000" cy="53.000000" r="53.000000" fill="#36536B" fill-opacity="1.000000"/>
		<circle id="Mask" cx="53.000000" cy="53.000000" r="53.000000" stroke="#979797" stroke-opacity="0" stroke-width="0.000000"/>
	</mask>
	<path id="Combined Shape" d="M72.948 45.3906L72.948 45.7291C72.948 46.2469 72.5283 46.6666 72.0105 46.6666L33.9375 46.6666C33.4199 46.6666 33 46.2469 33 45.7291L33 45.3906C33 42.4134 35.4136 40 38.3906 40L67.5574 40C70.5347 40 72.948 42.4134 72.948 45.3906ZM33 61.2239L33 50.8854C33 50.3676 33.4197 49.9479 33.9375 49.9479L72.0105 49.9479C72.5283 49.9479 72.948 50.3676 72.948 50.8854L72.948 61.2239C72.948 64.2011 70.5344 66.6145 67.5574 66.6145L38.3906 66.6145C35.4133 66.6145 33 64.2011 33 61.2239ZM40.4739 57.4479L42.9739 57.4479C43.8801 57.4479 44.6145 56.7133 44.6145 55.8073C44.6145 54.9012 43.8801 54.1666 42.9739 54.1666L40.4739 54.1666C39.5679 54.1666 38.8333 54.9012 38.8333 55.8073C38.8333 56.7133 39.5679 57.4479 40.4739 57.4479Z" clip-rule="evenodd" fill="#FFFFFF" fill-opacity="1.000000" fill-rule="evenodd"/>
</svg>
