<svg width="106.000000" height="106.000000" viewBox="0 0 106 106" fill="none" xmlns="http://www.w3.org/2000/svg" xmlns:xlink="http://www.w3.org/1999/xlink">
	<desc>
			Created with Pixso.
	</desc>
	<defs/>
	<circle id="Mask" cx="53.000000" cy="53.000000" r="53.000000" fill="#36536B" fill-opacity="1.000000"/>
	<circle id="Mask" cx="53.000000" cy="53.000000" r="53.000000" stroke="#979797" stroke-opacity="0" stroke-width="0.000000"/>
	<mask id="mask0_5256" mask-type="alpha" maskUnits="userSpaceOnUse" x="0.000000" y="0.000000" width="106.000000" height="106.000000">
		<circle id="Mask" cx="53.000000" cy="53.000000" r="53.000000" fill="#36536B" fill-opacity="1.000000"/>
		<circle id="Mask" cx="53.000000" cy="53.000000" r="53.000000" stroke="#979797" stroke-opacity="0" stroke-width="0.000000"/>
	</mask>
	<path id="Combined Shape" d="M38.9375 51.75C39.8829 51.75 40.7386 51.3707 41.371 50.7615L44.8398 52.4958C44.8225 52.6371 44.7969 52.776 44.7969 52.9219C44.7969 54.8604 46.374 56.4375 48.3125 56.4375C50.251 56.4375 51.8281 54.8604 51.8281 52.9219C51.8281 52.3808 51.6951 51.8742 51.4756 51.4158L56.1814 46.71C56.6399 46.9294 57.1465 47.0625 57.6875 47.0625C59.626 47.0625 61.2031 45.4854 61.2031 43.5469C61.2031 43.1819 61.1313 42.8367 61.0276 42.5056L65.1165 39.4398C65.6743 39.8124 66.3428 40.0312 67.0625 40.0312C69.001 40.0312 70.5781 38.4541 70.5781 36.5156C70.5781 34.5771 69.001 33 67.0625 33C65.124 33 63.5469 34.5771 63.5469 36.5156C63.5469 36.8806 63.6187 37.2258 63.7224 37.5569L59.6335 40.6227C59.0757 40.2501 58.4072 40.0312 57.6875 40.0312C55.749 40.0312 54.1719 41.6084 54.1719 43.5469C54.1719 44.088 54.3049 44.5945 54.5244 45.0529L49.8186 49.7587C49.3601 49.5393 48.8535 49.4062 48.3125 49.4062C47.3671 49.4062 46.5114 49.7856 45.879 50.3947L42.4102 48.6604C42.4275 48.5191 42.4531 48.3802 42.4531 48.2344C42.4531 46.2959 40.876 44.7188 38.9375 44.7188C36.999 44.7188 35.4219 46.2959 35.4219 48.2344C35.4219 50.1729 36.999 51.75 38.9375 51.75ZM70.5781 70.6562L71.8281 70.6562C72.4756 70.6562 73 71.1805 73 71.8281C73 72.4757 72.4756 73 71.8281 73L34.1719 73C33.5243 73 33 72.4757 33 71.8281C33 71.1805 33.5243 70.6562 34.1719 70.6562L35.4219 70.6562L35.4219 57.6094C35.4219 56.9618 35.9462 56.4375 36.5938 56.4375L41.2812 56.4375C41.9288 56.4375 42.4531 56.9618 42.4531 57.6094L42.4531 70.6562L44.7969 70.6562L44.7969 62.2969C44.7969 61.6493 45.3212 61.125 45.9688 61.125L50.6562 61.125C51.3038 61.125 51.8281 61.6493 51.8281 62.2969L51.8281 70.6562L54.1719 70.6562L54.1719 52.9219C54.1719 52.2743 54.6962 51.75 55.3438 51.75L60.0312 51.75C60.6787 51.75 61.2031 52.2743 61.2031 52.9219L61.2031 70.6562L63.5469 70.6562L63.5469 45.8906C63.5469 45.243 64.0713 44.7188 64.7188 44.7188L69.4062 44.7188C70.0537 44.7188 70.5781 45.243 70.5781 45.8906L70.5781 70.6562Z" clip-rule="evenodd" fill="#FFFFFF" fill-opacity="1.000000" fill-rule="evenodd"/>
</svg>
